<?xml version="1.0" encoding="UTF-8"?>
<svg id="Layer_2" data-name="Layer 2" xmlns="http://www.w3.org/2000/svg" viewBox="0 0 408.76 408.87">
  <defs>
    <style>
      .cls-1 {
        fill: #000;
        stroke-width: 0px;
      }
    </style>
  </defs>
  <g id="Layer_1-2" data-name="Layer 1">
    <path class="cls-1" d="M239.62,3.18c47.13,8.39,86.57,30.69,118.22,66.5,28.88,32.66,45.7,70.93,49.86,114.27,5.14,53.48-8.52,102.08-41.35,144.76-30.4,39.52-70.15,65.15-119.04,75.34-61.08,12.74-117.09.24-166.83-37.44-39.98-30.29-65.19-70.52-75.86-119.6-1.88-8.67-2.61-17.59-3.89-26.39-.21-1.42-.49-2.83-.74-4.24v-23.95c1.04-7.73,1.75-15.53,3.18-23.19C14.62,108.02,47.21,61.24,100.16,28.79,127.46,12.06,157.37,2.91,189.34.66c1.04-.07,2.05-.43,3.08-.66,7.98,0,15.97,0,23.95,0,7.75,1.05,15.55,1.81,23.24,3.18ZM180.76,201.04c22.76-22.77,45.53-45.52,68.28-68.3,6.83-6.84,8.27-14.34,4.29-21.64-4.98-9.13-16.77-11.71-25.02-5.42-1.47,1.12-2.81,2.44-4.13,3.75-26.91,26.89-53.82,53.78-80.72,80.68-9.72,9.72-9.68,18.88.1,28.67,27.09,27.09,54.17,54.18,81.28,81.25,7.72,7.71,16.83,8.68,24.28,2.7,7.12-5.72,8.46-15.94,2.96-23.22-1.2-1.58-2.61-3.01-4.02-4.42-22.28-22.3-44.57-44.6-66.88-66.87-1.13-1.12-2.45-2.04-4.08-3.37,1.66-1.74,2.63-2.8,3.64-3.82Z"/>
  </g>
</svg>