<?xml version="1.0" encoding="UTF-8"?>
<svg id="Layer_2" data-name="Layer 2" xmlns="http://www.w3.org/2000/svg" viewBox="0 0 511.13 512">
  <defs>
    <style>
      .cls-1 {
        fill: #fff;
        stroke-width: 0px;
      }
    </style>
  </defs>
  <g id="Layer_1-2" data-name="Layer 1">
    <path class="cls-1" d="M240.66,0c9.98,0,19.96,0,29.94,0,6.74.81,13.5,1.49,20.22,2.44,50.38,7.13,94.92,27.29,133.05,61.03,44.91,39.74,73,89.18,83.33,148.48,1.68,9.62,2.64,19.36,3.93,29.05v30c-.31,1.76-.68,3.52-.91,5.29-1.21,9.24-1.93,18.56-3.66,27.7-9.67,50.99-32.83,95.05-69.25,131.88-38.18,38.62-84.05,62.94-137.65,72.19-9.63,1.66-19.37,2.65-29.06,3.94h-29.94c-1.45-.29-2.89-.64-4.36-.86-13.94-2.17-28.11-3.33-41.78-6.61C63.34,473.01-21.09,340.98,4.6,208.07c9.85-50.97,32.9-95.06,69.32-131.9C112.1,37.53,157.98,13.2,211.59,3.94,221.22,2.28,230.96,1.3,240.66,0ZM289.52,256.22c2.89-2.3,4.45-3.31,5.74-4.6,22.73-22.72,45.43-45.47,68.11-68.23,1.76-1.76,3.5-3.58,5-5.56,7.94-10.42,6.28-25.3-3.69-33.77-10.63-9.02-24.57-8-35.37,2.78-23.21,23.17-46.35,46.42-69.53,69.63-1.27,1.27-2.6,2.48-4.13,3.94-1.51-1.42-2.84-2.61-4.11-3.88-22.82-22.86-45.64-45.73-68.47-68.57-1.64-1.65-3.33-3.27-5.16-4.7-10.67-8.33-25.85-6.55-34.39,3.98-8.64,10.64-7.44,24.3,3.25,35.04,23.13,23.25,46.33,46.44,69.5,69.67,1.26,1.26,2.44,2.61,3.84,4.1-1.47,1.54-2.69,2.87-3.96,4.15-22.7,22.75-45.4,45.49-68.09,68.25-1.76,1.77-3.51,3.57-5.03,5.54-6.91,8.91-6.88,21.24-.04,30.16,9.7,12.63,26.68,13.25,38.77,1.2,23.35-23.27,46.59-46.65,69.89-69.98,1.25-1.26,2.59-2.43,4.77-4.47,1.31,1.8,2.22,3.45,3.49,4.73,22.67,22.78,45.37,45.52,68.09,68.25,1.76,1.76,3.57,3.51,5.54,5.03,8.9,6.88,21.22,6.79,30.1-.11,12.56-9.76,13.08-26.71,1.02-38.87-23.11-23.27-46.31-46.46-69.52-69.64-1.28-1.28-2.95-2.16-5.62-4.06Z"/>
  </g>
</svg>