<?xml version="1.0" encoding="UTF-8"?>
<svg id="Layer_2" data-name="Layer 2" xmlns="http://www.w3.org/2000/svg" viewBox="0 0 68.78 68.83">
  <defs>
    <style>
      .cls-1 {
        fill: #fff;
        stroke-width: 0px;
      }
    </style>
  </defs>
  <g id="Layer_1-2" data-name="Layer 1">
    <g>
      <path class="cls-1" d="M34.5,0C15.73,0,.26,15.21,0,33.91c-.13,9.28,3.41,18.04,9.96,24.68,6.51,6.6,15.15,10.23,24.33,10.23h.1c18.96-.05,34.39-15.46,34.39-34.34C68.78,15.59,53.5.12,34.5,0ZM34.13,5.34v-.67h0l.1.68c7.87.03,15.22,3.09,20.71,8.63,5.44,5.48,8.41,12.76,8.37,20.5-.08,15.99-13.02,29.02-28.88,29.05-16.08,0-28.8-12.79-28.97-29.1.06-15.76,13.19-29.08,28.67-29.08Z"/>
      <path class="cls-1" d="M37.77,55.38h-9.6v-21.08h-4.6v-7.14c.99,0,1.96,0,2.94,0,1.9,0,1.64.11,1.66-1.67.02-1.85-.05-3.72.11-5.56.29-3.4,3.06-6.19,6.49-6.45,2.96-.22,5.94-.21,8.9-.29,1.37-.04,1.37-.02,1.37,1.36,0,1.75,0,3.51,0,5.26,0,.21,0,.43,0,.7-.34.02-.64.04-.93.04-1.32,0-2.63-.02-3.95,0-1.6.04-2.37.83-2.39,2.43-.01,1.18.02,2.35,0,3.53,0,.46.12.62.61.61,1.99-.03,3.99-.01,5.98-.01.22,0,.43,0,.76,0-.3,2.42-.6,4.77-.9,7.16h-6.44v21.1Z"/>
    </g>
  </g>
</svg>