<?xml version="1.0" encoding="UTF-8"?>
<svg id="Layer_2" data-name="Layer 2" xmlns="http://www.w3.org/2000/svg" viewBox="0 0 408.76 408.87">
  <defs>
    <style>
      .cls-1 {
        fill: #000;
        stroke-width: 0px;
      }
    </style>
  </defs>
  <g id="Layer_1-2" data-name="Layer 1">
    <path class="cls-1" d="M192.38,0c7.98,0,15.97,0,23.95,0,1.03.23,2.04.58,3.08.66,31.97,2.26,61.89,11.4,89.18,28.13,52.95,32.45,85.54,79.24,96.98,140.45,1.43,7.66,2.14,15.46,3.18,23.19v23.95c-.25,1.41-.53,2.82-.74,4.24-1.28,8.8-2.01,17.72-3.89,26.39-10.67,49.09-35.88,89.31-75.86,119.6-49.74,37.68-105.75,50.18-166.83,37.44-48.89-10.2-88.63-35.82-119.04-75.34C9.57,286.03-4.08,237.43,1.05,183.95c4.16-43.34,20.99-81.6,49.86-114.27C82.57,33.87,122,11.57,169.14,3.18c7.69-1.37,15.49-2.14,23.24-3.18ZM231.64,204.85c-1.62,1.33-2.95,2.25-4.08,3.37-22.31,22.27-44.6,44.57-66.88,66.87-1.41,1.41-2.82,2.84-4.02,4.42-5.5,7.28-4.16,17.5,2.96,23.22,7.45,5.98,16.56,5.01,24.28-2.7,27.11-27.07,54.2-54.16,81.28-81.25,9.78-9.78,9.82-18.95.1-28.67-26.9-26.9-53.81-53.8-80.72-80.68-1.31-1.31-2.65-2.63-4.13-3.75-8.26-6.29-20.05-3.71-25.02,5.42-3.98,7.29-2.53,14.8,4.29,21.64,22.75,22.78,45.52,45.53,68.28,68.3,1.02,1.02,1.99,2.08,3.64,3.82Z"/>
  </g>
</svg>