<?xml version="1.0" encoding="UTF-8"?>
<svg id="Layer_2" data-name="Layer 2" xmlns="http://www.w3.org/2000/svg" viewBox="0 0 67.23 67.23">
  <defs>
    <style>
      .cls-1 {
        fill: #fff;
        stroke-width: 0px;
      }
    </style>
  </defs>
  <g id="Layer_1-2" data-name="Layer 1">
    <path class="cls-1" d="M19.69.24c-3.58.17-6.02.74-8.15,1.58-2.21.86-4.08,2.02-5.95,3.89-1.86,1.87-3.01,3.75-3.87,5.96-.83,2.14-1.39,4.58-1.55,8.16C.02,23.4-.01,24.55,0,33.68c.02,9.13.06,10.27.23,13.86.17,3.58.74,6.02,1.58,8.15.86,2.21,2.02,4.08,3.89,5.95,1.87,1.86,3.74,3.01,5.96,3.87,2.14.83,4.58,1.39,8.16,1.55,3.58.16,4.73.19,13.86.18s10.27-.06,13.86-.23,6.01-.74,8.15-1.58c2.21-.86,4.08-2.02,5.95-3.89s3.01-3.75,3.86-5.96c.83-2.14,1.39-4.58,1.55-8.16.16-3.59.19-4.73.18-13.86s-.06-10.27-.23-13.86-.74-6.02-1.58-8.16c-.86-2.21-2.02-4.08-3.89-5.95s-3.75-3.01-5.96-3.86c-2.14-.83-4.58-1.39-8.16-1.55S42.68-.01,33.55,0c-9.13.02-10.27.06-13.86.23M20.09,61c-3.28-.14-5.06-.69-6.24-1.14-1.57-.61-2.69-1.34-3.87-2.51s-1.91-2.29-2.52-3.86c-.46-1.19-1.02-2.96-1.17-6.24-.17-3.54-.2-4.61-.22-13.58-.02-8.97.01-10.04.17-13.58.14-3.27.69-5.06,1.14-6.24.61-1.57,1.33-2.69,2.51-3.87s2.29-1.91,3.86-2.52c1.18-.46,2.96-1.01,6.24-1.17,3.54-.17,4.61-.2,13.58-.22,8.97-.02,10.04.01,13.58.17,3.27.14,5.06.68,6.24,1.14,1.57.61,2.69,1.33,3.87,2.51s1.91,2.29,2.52,3.86c.46,1.18,1.01,2.96,1.17,6.24.17,3.54.21,4.61.22,13.58s-.01,10.04-.17,13.58c-.14,3.28-.69,5.06-1.14,6.24-.61,1.57-1.33,2.69-2.51,3.87s-2.29,1.91-3.86,2.52c-1.18.46-2.96,1.01-6.24,1.17-3.54.17-4.61.2-13.58.22-8.97.02-10.04-.02-13.58-.17M47.49,15.65c0,2.23,1.81,4.03,4.04,4.03s4.03-1.81,4.03-4.04c0-2.23-1.81-4.03-4.04-4.03h0c-2.23,0-4.03,1.81-4.03,4.04M16.35,33.65c.02,9.53,7.76,17.24,17.29,17.22,9.53-.02,17.25-7.76,17.23-17.29-.02-9.53-7.76-17.25-17.29-17.23s-17.24,7.76-17.22,17.29M22.41,33.64c-.01-6.19,4.99-11.21,11.18-11.23,6.19-.01,11.21,4.99,11.23,11.18.01,6.19-4.99,11.21-11.18,11.23-6.19.01-11.21-4.99-11.23-11.18h0"/>
  </g>
</svg>